<svg id="Layer_1" style="background-color: #fafafa;" data-name="Layer 1" xmlns="http://www.w3.org/2000/svg" viewBox="0 0 24 24"><title>password-hide</title><path d="M13.93,11.48l-2.45,2.45A1.81,1.81,0,0,0,12,14a2,2,0,0,0,2-2A1.81,1.81,0,0,0,13.93,11.48Zm-1.41-1.41A1.81,1.81,0,0,0,12,10a2,2,0,0,0-2,2,1.81,1.81,0,0,0,.07.52Zm5.31-2.49L15.45,10A4,4,0,0,1,10,15.45L7.91,17.5a9.07,9.07,0,0,0,4.09,1c3.64,0,7.11-2.3,9.82-6.5A16.78,16.78,0,0,0,17.83,7.58ZM16.09,6.5A9.07,9.07,0,0,0,12,5.5C8.36,5.5,4.89,7.8,2.18,12a16.78,16.78,0,0,0,4,4.42L8.55,14A4,4,0,0,1,14,8.55ZM6.43,19,1.71,23.71A1,1,0,0,1,.29,22.29l4.45-4.44A19.46,19.46,0,0,1,.15,12.52a1,1,0,0,1,0-1c3.12-5.15,7.33-8,11.85-8A11.19,11.19,0,0,1,17.57,5L22.29.29a1,1,0,1,1,1.42,1.42L19.26,6.15a19.63,19.63,0,0,1,4.59,5.33,1,1,0,0,1,0,1c-3.12,5.15-7.33,8-11.85,8A11.19,11.19,0,0,1,6.43,19Z"/></svg>