<svg id="Visa_Logo" style="background-color: #fafafa;" data-name="Visa Logo" xmlns="http://www.w3.org/2000/svg" xmlns:xlink="http://www.w3.org/1999/xlink" viewBox="0 0 216 69.76"><defs><style>.cls-1{fill:url(#Visa_Blue_Gradient);}</style><linearGradient id="Visa_Blue_Gradient" x1="-0.82" y1="66.23" x2="215.8" y2="4.12" gradientUnits="userSpaceOnUse"><stop offset="0" stop-color="#1a1e5a"/><stop offset="1" stop-color="#122d98"/></linearGradient></defs><title>visa_vbm_blugrad</title><path class="cls-1" d="M82,1.23,53.73,68.7H35.28L21.37,14.86c-.85-3.32-1.58-4.53-4.15-5.93C13,6.65,6.09,4.52,0,3.19l.41-2h29.7a8.13,8.13,0,0,1,8,6.88l7.35,39L63.68,1.23ZM154.3,46.67c.08-17.8-24.62-18.78-24.45-26.74.05-2.42,2.36-5,7.4-5.65a32.88,32.88,0,0,1,17.21,3L157.52,3A47,47,0,0,0,141.2,0C124,0,111.8,9.17,111.7,22.3,111.59,32,120.37,37.44,127,40.66c6.8,3.31,9.09,5.43,9.06,8.39,0,4.53-5.43,6.52-10.45,6.6-8.77.14-13.86-2.37-17.92-4.26L104.5,66.17c4.08,1.87,11.61,3.51,19.41,3.59,18.34,0,30.34-9.06,30.39-23.09m45.56,22H216L201.91,1.23H187a7.94,7.94,0,0,0-7.43,4.95L153.39,68.7h18.33l3.64-10.08h22.39ZM180.38,44.8l9.19-25.34,5.29,25.34ZM107,1.23,92.52,68.7H75.06L89.5,1.23Z"/></svg>